<?xml version="1.0" encoding="iso-8859-1"?>
<!-- Uploaded to: SVG Repo, www.svgrepo.com, Generator: SVG Repo Mixer Tools -->
<!DOCTYPE svg PUBLIC "-//W3C//DTD SVG 1.1//EN" "http://www.w3.org/Graphics/SVG/1.1/DTD/svg11.dtd">
<svg fill="#000000" version="1.1" id="Capa_1" xmlns="http://www.w3.org/2000/svg" xmlns:xlink="http://www.w3.org/1999/xlink" 
	 width="800px" height="800px" viewBox="0 0 123.077 123.076"
	 xml:space="preserve">
<g>
	<g>
		<path d="M41.396,60.597l-1.17-0.446v-6.236c1.791,0.19,3.613,0.648,5.425,1.364l0.45,0.178l1.784-4.47l-0.444-0.184
			c-2.271-0.936-4.695-1.479-7.214-1.616v-3.242h-3.57v3.333c-2.28,0.295-4.134,1.024-5.513,2.166
			c-1.51,1.251-2.275,2.866-2.275,4.806c0,1.791,0.536,3.321,1.592,4.545c1.031,1.194,2.669,2.229,4.875,3.078l1.321,0.484v6.461
			c-1.022-0.055-2.168-0.236-3.417-0.547c-1.456-0.361-2.745-0.812-3.827-1.342l-0.702-0.343v5.212l0.287,0.131
			c2.018,0.912,4.592,1.422,7.659,1.516v4.13h3.57v-4.29c2.484-0.332,4.438-1.114,5.809-2.333c1.481-1.313,2.233-3.006,2.233-5.028
			c0-1.639-0.521-3.048-1.549-4.191C45.707,62.61,43.967,61.583,41.396,60.597z M36.657,58.793
			c-0.783-0.358-1.341-0.715-1.666-1.061c-0.376-0.403-0.561-0.903-0.561-1.522c0-0.574,0.213-1.041,0.654-1.429
			c0.375-0.329,0.902-0.576,1.572-0.734L36.657,58.793L36.657,58.793z M40.227,70.575V65.65c0.831,0.35,1.444,0.705,1.827,1.059
			c0.427,0.395,0.634,0.889,0.634,1.506C42.688,68.678,42.688,70.023,40.227,70.575z"/>
		<path d="M65.458,16.015l-1.17-0.445V9.333c1.791,0.191,3.613,0.649,5.424,1.363l0.451,0.177l1.783-4.467L71.501,6.22
			c-2.271-0.936-4.696-1.478-7.214-1.616V1.362h-3.57v3.333c-2.28,0.295-4.134,1.023-5.513,2.167
			c-1.51,1.25-2.276,2.865-2.276,4.805c0,1.792,0.536,3.321,1.592,4.544c1.03,1.195,2.669,2.23,4.875,3.077l1.321,0.488v6.457
			c-1.021-0.053-2.167-0.234-3.417-0.544c-1.455-0.361-2.744-0.813-3.827-1.343l-0.702-0.341v5.212l0.287,0.129
			c2.018,0.913,4.592,1.423,7.659,1.517v4.129h3.57v-4.291c2.483-0.331,4.438-1.115,5.81-2.331c1.479-1.313,2.231-3.007,2.231-5.029
			c0-1.639-0.521-3.049-1.549-4.191C69.768,18.027,68.028,17.001,65.458,16.015z M60.718,14.211
			c-0.783-0.358-1.341-0.714-1.667-1.06c-0.376-0.404-0.56-0.904-0.56-1.523c0-0.573,0.213-1.042,0.654-1.429
			c0.375-0.33,0.902-0.576,1.572-0.734L60.718,14.211L60.718,14.211z M64.288,25.993v-4.925c0.832,0.35,1.443,0.706,1.826,1.058
			c0.429,0.395,0.635,0.889,0.635,1.507C66.75,24.096,66.75,25.44,64.288,25.993z"/>
		<path d="M41.396,16.015l-1.17-0.445V9.333c1.791,0.191,3.613,0.649,5.425,1.363l0.45,0.177l1.784-4.467L47.441,6.22
			c-2.271-0.936-4.695-1.478-7.214-1.616V1.362h-3.57v3.333c-2.28,0.295-4.134,1.023-5.513,2.167
			c-1.51,1.25-2.275,2.865-2.275,4.805c0,1.792,0.536,3.321,1.592,4.544c1.031,1.195,2.669,2.23,4.875,3.077l1.321,0.488v6.457
			c-1.022-0.053-2.168-0.234-3.417-0.544c-1.456-0.361-2.745-0.813-3.827-1.343l-0.702-0.341v5.212l0.287,0.129
			c2.018,0.913,4.592,1.423,7.659,1.517v4.129h3.57v-4.291c2.484-0.331,4.438-1.115,5.809-2.331
			c1.481-1.313,2.233-3.007,2.233-5.029c0-1.639-0.521-3.049-1.549-4.191C45.707,18.027,43.967,17.001,41.396,16.015z
			 M36.657,14.211c-0.783-0.358-1.341-0.714-1.666-1.06c-0.376-0.404-0.561-0.904-0.561-1.523c0-0.573,0.213-1.042,0.654-1.429
			c0.375-0.33,0.902-0.576,1.572-0.734L36.657,14.211L36.657,14.211z M40.227,25.993v-4.925c0.831,0.35,1.444,0.706,1.827,1.058
			c0.427,0.395,0.634,0.889,0.634,1.507C42.688,24.096,42.688,25.44,40.227,25.993z"/>
		<circle cx="63.678" cy="46.698" r="3.762"/>
		<path d="M66.18,51.375c-0.063-0.039-0.129-0.066-0.194-0.093c-0.421-0.279-0.892-0.485-1.371-0.604l-0.937,0.944L62.77,50.67
			c-0.004,0-0.006,0-0.01,0c-0.481,0.116-0.955,0.32-1.375,0.599c-0.075,0.031-0.149,0.062-0.222,0.106
			c-2.92,1.79-4.598,3.209-5.116,11.497c-0.05,0.806,0.563,1.499,1.367,1.55c0.032,0.002,0.063,0.002,0.093,0.002
			c0.765,0,1.407-0.595,1.456-1.369c0.175-2.798,0.459-4.611,0.865-5.863v5.062c0,0.393,0.077,0.758,0.209,1.096
			c-0.01,0.075-0.017,0.152-0.017,0.23l0.001,13.986c0,0.955,0.773,1.726,1.726,1.726c0.954,0,1.725-0.772,1.725-1.728v-12
			c0.067,0.002,0.137,0.007,0.207,0.007c0.014,0,0.025,0,0.039,0v11.993c0,0.955,0.772,1.728,1.727,1.728
			c0.953,0,1.725-0.772,1.725-1.728l0.001-13.897c0.228-0.42,0.358-0.896,0.358-1.413v-5.018c0.4,1.248,0.678,3.052,0.851,5.818
			c0.048,0.774,0.69,1.369,1.457,1.369c0.03,0,0.062,0,0.091-0.002c0.807-0.051,1.418-0.744,1.369-1.55
			C70.776,54.584,69.1,53.165,66.18,51.375z M63.686,59.066h-0.018l-0.906-1.241l0.906-6.063h0.018l0.908,6.063L63.686,59.066z"/>
		<circle cx="86.745" cy="46.699" r="3.761"/>
		<path d="M89.246,51.375c-0.063-0.039-0.128-0.066-0.194-0.093c-0.42-0.279-0.891-0.485-1.371-0.604l-0.936,0.944l-0.909-0.952
			c-0.003,0-0.006,0-0.009,0c-0.482,0.116-0.954,0.32-1.376,0.599c-0.075,0.031-0.147,0.062-0.222,0.106
			c-2.92,1.79-4.599,3.209-5.115,11.497c-0.051,0.806,0.562,1.499,1.365,1.55c0.033,0.002,0.063,0.002,0.094,0.002
			c0.765,0,1.408-0.595,1.457-1.369c0.174-2.798,0.458-4.611,0.863-5.863v5.062c0,0.393,0.078,0.758,0.211,1.096
			c-0.012,0.075-0.019,0.152-0.019,0.23l0.002,13.986c0,0.955,0.772,1.726,1.726,1.726s1.726-0.772,1.726-1.728l-0.001-12
			c0.068,0.002,0.139,0.007,0.206,0.007c0.015,0,0.026,0,0.041,0v11.993c0,0.955,0.771,1.728,1.726,1.728
			c0.953,0,1.727-0.772,1.727-1.728V63.667c0.226-0.42,0.357-0.896,0.357-1.413v-5.018c0.4,1.248,0.68,3.052,0.852,5.818
			c0.048,0.774,0.691,1.369,1.455,1.369c0.031,0,0.062,0,0.093-0.002c0.806-0.051,1.417-0.744,1.368-1.55
			C93.842,54.584,92.167,53.165,89.246,51.375z M86.752,59.066h-0.02l-0.905-1.241l0.905-6.063h0.02l0.907,6.063L86.752,59.066z"/>
		<circle cx="63.678" cy="90.482" r="3.762"/>
		<path d="M66.18,95.162c-0.063-0.04-0.129-0.066-0.194-0.096c-0.421-0.279-0.892-0.484-1.371-0.604l-0.937,0.945l-0.908-0.953
			c-0.004,0-0.006,0-0.01,0c-0.481,0.115-0.955,0.319-1.375,0.601c-0.075,0.029-0.149,0.061-0.222,0.106
			c-2.92,1.788-4.598,3.207-5.116,11.496c-0.05,0.803,0.563,1.498,1.367,1.55c0.032,0.002,0.063,0.002,0.093,0.002
			c0.765,0,1.407-0.595,1.456-1.37c0.175-2.798,0.459-4.61,0.865-5.862v5.062c0,0.394,0.077,0.758,0.209,1.097
			c-0.01,0.075-0.017,0.151-0.017,0.23l0.001,13.984c0,0.955,0.773,1.727,1.726,1.727c0.954,0,1.725-0.771,1.725-1.729v-12
			c0.067,0.002,0.137,0.006,0.207,0.006c0.014,0,0.025,0,0.039,0v11.994c0,0.955,0.772,1.729,1.727,1.729
			c0.953,0,1.725-0.771,1.725-1.729l0.001-13.896c0.228-0.421,0.358-0.896,0.358-1.414v-5.019c0.4,1.248,0.678,3.054,0.851,5.819
			c0.048,0.775,0.69,1.37,1.457,1.37c0.03,0,0.062,0,0.091-0.002c0.807-0.052,1.418-0.747,1.369-1.55
			C70.776,98.369,69.1,96.95,66.18,95.162z M63.686,102.852h-0.018l-0.906-1.24l0.906-6.065h0.018l0.908,6.065L63.686,102.852z"/>
		<circle cx="40.01" cy="90.482" r="3.762"/>
		<path d="M42.511,95.162c-0.063-0.04-0.128-0.066-0.193-0.096c-0.42-0.279-0.891-0.484-1.371-0.604l-0.937,0.945l-0.91-0.953
			c-0.002,0-0.005,0-0.009,0c-0.481,0.115-0.954,0.319-1.375,0.601c-0.075,0.029-0.149,0.061-0.222,0.106
			c-2.92,1.788-4.598,3.207-5.116,11.496c-0.051,0.803,0.562,1.498,1.367,1.55c0.032,0.002,0.063,0.002,0.093,0.002
			c0.765,0,1.407-0.595,1.456-1.37c0.175-2.798,0.458-4.61,0.865-5.862v5.062c0,0.394,0.077,0.758,0.21,1.097
			c-0.011,0.075-0.017,0.151-0.017,0.23l0.001,13.984c0,0.955,0.773,1.727,1.726,1.727s1.726-0.771,1.726-1.729l-0.002-12
			c0.069,0.002,0.138,0.006,0.207,0.006c0.014,0,0.026,0,0.04,0v11.994c0,0.955,0.772,1.729,1.726,1.729
			c0.953,0,1.725-0.771,1.725-1.729l0.001-13.896c0.227-0.421,0.358-0.896,0.358-1.414v-5.019c0.4,1.248,0.678,3.054,0.851,5.819
			c0.048,0.775,0.691,1.37,1.457,1.37c0.03,0,0.062,0,0.091-0.002c0.806-0.052,1.417-0.747,1.368-1.55
			C47.108,98.369,45.433,96.95,42.511,95.162z M40.018,102.852H40l-0.906-1.24L40,95.546h0.018l0.907,6.065L40.018,102.852z"/>
		<circle cx="86.745" cy="90.482" r="3.762"/>
		<path d="M89.246,95.162c-0.063-0.04-0.128-0.066-0.194-0.096c-0.42-0.279-0.891-0.484-1.371-0.604l-0.936,0.945l-0.909-0.953
			c-0.003,0-0.006,0-0.009,0c-0.482,0.115-0.954,0.319-1.376,0.601c-0.075,0.029-0.147,0.061-0.222,0.106
			c-2.92,1.788-4.599,3.207-5.115,11.496c-0.051,0.803,0.562,1.498,1.365,1.55c0.033,0.002,0.063,0.002,0.094,0.002
			c0.765,0,1.408-0.595,1.457-1.37c0.174-2.798,0.458-4.61,0.863-5.862v5.062c0,0.394,0.078,0.758,0.211,1.097
			c-0.012,0.075-0.019,0.151-0.019,0.23l0.002,13.984c0,0.955,0.772,1.727,1.726,1.727s1.726-0.771,1.726-1.729l-0.001-12
			c0.068,0.002,0.139,0.006,0.206,0.006c0.015,0,0.026,0,0.041,0v11.994c0,0.955,0.771,1.729,1.726,1.729
			c0.953,0,1.727-0.771,1.727-1.729v-13.896c0.226-0.421,0.357-0.896,0.357-1.414v-5.019c0.4,1.248,0.68,3.054,0.852,5.819
			c0.048,0.775,0.691,1.37,1.455,1.37c0.031,0,0.062,0,0.093-0.002c0.806-0.052,1.417-0.747,1.368-1.55
			C93.842,98.369,92.167,96.95,89.246,95.162z M86.752,102.852h-0.02l-0.905-1.24l0.905-6.065h0.02l0.907,6.065L86.752,102.852z"/>
		<circle cx="86.745" cy="3.762" r="3.762"/>
		<path d="M80.479,21.484c0.033,0.003,0.063,0.003,0.094,0.003c0.765,0,1.408-0.596,1.457-1.37c0.174-2.797,0.458-4.611,0.863-5.862
			v5.061c0,0.394,0.078,0.758,0.211,1.096c-0.012,0.075-0.019,0.153-0.019,0.231l0.002,13.985c0,0.955,0.772,1.726,1.726,1.726
			s1.726-0.771,1.726-1.728l-0.001-12c0.068,0.002,0.139,0.007,0.206,0.007c0.015,0,0.026,0,0.041,0v11.993
			c0,0.956,0.771,1.728,1.726,1.728c0.953,0,1.727-0.771,1.727-1.728V20.73c0.226-0.42,0.357-0.894,0.357-1.414v-5.018
			c0.4,1.248,0.68,3.054,0.852,5.819c0.048,0.774,0.691,1.37,1.455,1.37c0.031,0,0.062,0,0.093-0.003
			c0.806-0.051,1.417-0.745,1.368-1.548c-0.518-8.289-2.194-9.708-5.115-11.496c-0.062-0.041-0.128-0.067-0.193-0.096
			c-0.42-0.279-0.892-0.485-1.371-0.604l-0.937,0.944l-0.909-0.953c-0.003,0-0.006,0-0.009,0c-0.481,0.116-0.954,0.32-1.376,0.6
			c-0.075,0.03-0.148,0.061-0.223,0.108c-2.918,1.788-4.598,3.207-5.114,11.496C79.063,20.739,79.676,21.434,80.479,21.484z
			 M86.735,8.824h0.019l0.907,6.064l-0.907,1.24h-0.019l-0.906-1.24L86.735,8.824z"/>
	</g>
</g>
</svg>